<svg width="46" height="28" viewBox="0 0 46 28" fill="none" xmlns="http://www.w3.org/2000/svg">
<path fill-rule="evenodd" clip-rule="evenodd" d="M24.3831 21.1338C24.3831 21.4244 24.3238 21.6838 24.205 21.9116C24.0864 22.1384 23.9234 22.3285 23.7156 22.4815C23.5079 22.6346 23.263 22.75 22.9812 22.8284C22.6993 22.9065 22.3915 22.9457 22.0581 22.9457C21.7756 22.9457 21.47 22.9137 21.1402 22.8502C20.8099 22.787 20.5225 22.7027 20.2774 22.5982L20.5003 21.5106C20.7377 21.6076 20.9819 21.6842 21.2344 21.7405C21.4866 21.7965 21.7423 21.8245 22.0022 21.8245C22.2541 21.8245 22.4638 21.7871 22.6308 21.7125C22.7981 21.6378 22.8808 21.5031 22.8808 21.309C22.8808 21.1369 22.7996 21.0115 22.6366 20.9331C22.473 20.8547 22.2581 20.7589 21.9911 20.6469C21.7756 20.5573 21.5684 20.4658 21.3678 20.3725C21.1677 20.2792 20.9914 20.1672 20.8399 20.0362C20.6877 19.9055 20.5651 19.7522 20.4725 19.5764C20.3795 19.4009 20.3335 19.1822 20.3335 18.9206C20.3335 18.6365 20.387 18.3898 20.4944 18.1807C20.6021 17.971 20.7506 17.7993 20.9396 17.6649C21.1288 17.5302 21.3511 17.4291 21.6073 17.3619C21.863 17.2944 22.1393 17.2611 22.436 17.2611C22.7478 17.2611 23.046 17.2894 23.3319 17.346C23.6175 17.4026 23.8938 17.5031 24.1608 17.6462L23.9271 18.7414C23.7119 18.6443 23.4875 18.564 23.2541 18.5002C23.0204 18.4365 22.7848 18.4047 22.5477 18.4047C22.3322 18.4047 22.16 18.429 22.03 18.4775C21.9003 18.5258 21.8355 18.6287 21.8355 18.7849C21.8355 18.9339 21.9133 19.0462 22.0692 19.1206C22.2245 19.1953 22.4103 19.2811 22.6252 19.3779C22.7811 19.4448 22.9608 19.5213 23.1649 19.6069C23.3686 19.6927 23.5597 19.8029 23.7379 19.937C23.916 20.0717 24.0682 20.2338 24.1942 20.4235C24.3201 20.6139 24.3831 20.8504 24.3831 21.1338V21.1338ZM16.7397 18.4498C16.5319 18.4498 16.3464 18.4813 16.1834 18.545C16.02 18.6088 15.8678 18.7009 15.7268 18.8207V21.6674C15.8163 21.7122 15.9234 21.7458 16.0497 21.7682C16.1756 21.7909 16.313 21.8021 16.4612 21.8021C16.7283 21.8021 16.9564 21.7591 17.146 21.6723C17.3346 21.5868 17.4887 21.467 17.6078 21.3124C17.7258 21.159 17.8131 20.977 17.8687 20.767C17.9243 20.557 17.9524 20.3283 17.9524 20.0807C17.9524 19.6006 17.8542 19.209 17.6572 18.9053C17.4612 18.6014 17.1549 18.4498 16.7397 18.4498ZM14.2029 14.9175H15.7268V17.8217C15.8901 17.6574 16.0867 17.523 16.3164 17.4179C16.5464 17.3137 16.8289 17.2611 17.1623 17.2611C17.5186 17.2611 17.8391 17.3302 18.1249 17.4683C18.4102 17.607 18.6532 17.7993 18.8535 18.0457C19.0542 18.2927 19.2079 18.5877 19.3154 18.9318C19.4231 19.2755 19.4765 19.6495 19.4765 20.0527C19.4765 20.4714 19.4135 20.8585 19.2876 21.2134C19.161 21.5687 18.9721 21.8746 18.7202 22.1331C18.4676 22.3907 18.1506 22.5904 17.769 22.7326C17.3865 22.8745 16.9434 22.9457 16.439 22.9457C16.0241 22.9457 15.627 22.9006 15.2485 22.8113C14.8704 22.7217 14.5218 22.6019 14.2029 22.4526V14.9175V14.9175ZM10.2083 21.9032C10.4235 21.9032 10.6242 21.8655 10.8091 21.7912C10.9943 21.7165 11.1579 21.6226 11.299 21.5106V20.6469C11.1431 20.6625 10.9761 20.6771 10.7983 20.692C10.6201 20.707 10.4568 20.7253 10.3083 20.748C10.086 20.7857 9.90791 20.8476 9.77423 20.9331C9.64087 21.019 9.57418 21.1634 9.57418 21.3646C9.57418 21.5442 9.63129 21.6786 9.74707 21.7682C9.86191 21.8581 10.0157 21.9032 10.2083 21.9032ZM11.3543 22.2504C11.1539 22.4451 10.9134 22.6091 10.6313 22.7438C10.3494 22.8782 10.0231 22.9457 9.6526 22.9457C9.41488 22.9457 9.1997 22.9065 9.00674 22.8278C8.8141 22.7494 8.65048 22.6411 8.51742 22.5027C8.38374 22.3646 8.2797 22.2018 8.2056 22.0149C8.13151 21.8282 8.09446 21.6226 8.09446 21.3986C8.09446 20.8977 8.26148 20.5166 8.59521 20.2546C8.92864 19.9933 9.38555 19.8433 9.96379 19.806C10.1864 19.7914 10.4158 19.7802 10.6538 19.7724C10.8912 19.7652 11.1058 19.7578 11.299 19.7503V19.5599C11.299 19.208 11.2138 18.9411 11.0431 18.7578C10.8724 18.5743 10.6053 18.4834 10.242 18.4834C9.95978 18.4834 9.69304 18.517 9.44112 18.5842C9.18827 18.6514 8.9663 18.7373 8.77304 18.8425L8.47265 17.7657C8.75483 17.6008 9.06602 17.4761 9.40778 17.3902C9.7483 17.304 10.116 17.2611 10.509 17.2611C11.2283 17.2611 11.7942 17.459 12.2058 17.8553C12.6173 18.2517 12.8229 18.8384 12.8229 19.6159V22.8337H11.3543V22.2504V22.2504ZM6.51472 21.2526C6.51472 21.4244 6.54991 21.5535 6.62061 21.6394C6.69069 21.7258 6.8114 21.7682 6.98182 21.7682C7.04881 21.7682 7.11889 21.765 7.19329 21.7573C7.26739 21.7495 7.33778 21.7386 7.40477 21.7237L7.46034 22.8001C7.33407 22.8371 7.17848 22.8689 6.99324 22.8953C6.8077 22.9211 6.62586 22.9342 6.44772 22.9342C6.17327 22.9342 5.94358 22.8913 5.75772 22.8054C5.5728 22.7195 5.42245 22.6038 5.30729 22.4579C5.19245 22.3123 5.11095 22.148 5.06278 21.9645C5.01462 21.7818 4.99023 21.593 4.99023 21.3982V14.9178H6.51472V21.2526V21.2526ZM36.1628 7.1478H37.6823V5.73473H39.2071V7.1478H40.8313V8.34744H39.2071V10.6907C39.2071 10.9449 39.2534 11.1468 39.3461 11.2962C39.4384 11.4455 39.6224 11.5205 39.8968 11.5205C40.1864 11.5205 40.4602 11.4794 40.7202 11.397L40.8313 12.4849C40.6677 12.5521 40.464 12.6081 40.2194 12.6529C39.9749 12.698 39.7298 12.7201 39.4847 12.7201C39.1584 12.7201 38.8824 12.6697 38.6561 12.5689C38.4298 12.4678 38.2445 12.3275 38.1 12.148C37.9553 11.9688 37.85 11.7594 37.7827 11.5205C37.7157 11.2812 37.6823 11.0196 37.6823 10.7358V8.34713H35.5336L36.1628 7.14749V7.1478ZM31.3742 12.6081V4.6922H32.8983V9.71509L34.7007 7.1478H36.3919L34.467 9.83891L36.6589 12.6081H34.8452L32.8983 9.95091V12.6081H31.3742V12.6081ZM27.9587 8.06713C27.6469 8.06713 27.408 8.17727 27.2406 8.39753C27.0739 8.61811 26.9758 8.89656 26.9458 9.23318H28.8043C28.8414 8.88193 28.7889 8.59976 28.6481 8.38664C28.5073 8.17384 28.2777 8.06713 27.9587 8.06713ZM28.0477 7.03549C28.4036 7.03549 28.7204 7.09149 28.9988 7.20349C29.2773 7.31549 29.5085 7.47509 29.6944 7.68073C29.8793 7.88576 30.0204 8.13278 30.117 8.42056C30.2134 8.70802 30.2618 9.03127 30.2618 9.39029C30.2618 9.53962 30.2523 9.69113 30.2337 9.84451C30.2152 9.99727 30.1874 10.1376 30.1504 10.2645H26.935C26.9504 10.6649 27.0721 10.9835 27.3024 11.2209C27.5321 11.4579 27.8992 11.5762 28.4039 11.5762C28.6932 11.5762 28.9751 11.5494 29.2492 11.4953C29.5237 11.4411 29.7685 11.3637 29.9837 11.2626L30.1732 12.3054C29.9062 12.4395 29.6018 12.5428 29.2606 12.6134C28.9192 12.6846 28.5672 12.7201 28.2033 12.7201C27.751 12.7201 27.3506 12.6529 27.0023 12.5185C26.6531 12.3835 26.3583 12.1931 26.1172 11.9464C25.8761 11.6997 25.6927 11.4029 25.5664 11.0547C25.4402 10.7075 25.3775 10.3246 25.3775 9.90549C25.3775 9.4802 25.4383 9.08913 25.5609 8.73416C25.6834 8.37918 25.8594 8.07616 26.0897 7.82602C26.3197 7.57558 26.5997 7.38113 26.9295 7.24269C27.2598 7.10456 27.6321 7.03549 28.048 7.03549H28.0477ZM21.917 8.23513C21.6722 8.23513 21.4592 8.28771 21.2773 8.39224C21.0952 8.49709 20.9525 8.61282 20.8488 8.73944V11.4421C20.9445 11.4794 21.0563 11.5074 21.1829 11.5261C21.3085 11.5447 21.4422 11.5541 21.5833 11.5541C22.1019 11.5541 22.4804 11.3935 22.7181 11.0718C22.9552 10.7505 23.0741 10.3358 23.0741 9.8274C23.0741 9.37162 22.9793 8.99238 22.7907 8.68936C22.6011 8.38664 22.3097 8.23513 21.917 8.23513V8.23513ZM19.3243 7.1478H20.7818V7.84282C20.9603 7.59611 21.1832 7.40011 21.4496 7.2542C21.7163 7.1086 22.0427 7.03549 22.4286 7.03549C22.7549 7.03549 23.0516 7.10238 23.3186 7.23771C23.586 7.37149 23.8138 7.56096 24.0031 7.80331C24.192 8.04629 24.3386 8.33811 24.4424 8.67784C24.5464 9.01851 24.598 9.39776 24.598 9.81589C24.598 10.2869 24.5239 10.7035 24.376 11.0666C24.2272 11.429 24.0271 11.7336 23.7749 11.98C23.5227 12.227 23.2278 12.4118 22.8904 12.5353C22.5524 12.6588 22.1911 12.7201 21.8055 12.7201C21.6049 12.7201 21.4271 12.707 21.2715 12.6809C21.1159 12.6545 20.9748 12.6227 20.8485 12.586V14.9175H19.3243V7.1478V7.1478ZM18.2895 10.9085C18.2895 11.1991 18.2302 11.4586 18.1113 11.6857C17.9928 11.9128 17.8301 12.1032 17.622 12.2562C17.4142 12.4087 17.1694 12.5244 16.8879 12.6025C16.6057 12.6809 16.2982 12.7201 15.9648 12.7201C15.6823 12.7201 15.3764 12.6884 15.0466 12.6249C14.7163 12.5611 14.4292 12.4771 14.1841 12.3729L14.407 11.285C14.6444 11.3823 14.8886 11.4592 15.1411 11.5146C15.3933 11.5709 15.649 11.5992 15.9086 11.5992C16.1608 11.5992 16.3704 11.5618 16.5372 11.4866C16.7045 11.4119 16.7875 11.2775 16.7875 11.083C16.7875 10.9113 16.706 10.7859 16.5433 10.7075C16.3797 10.6291 16.1645 10.5336 15.8975 10.4213C15.6823 10.332 15.4751 10.2406 15.2745 10.1469C15.0741 10.0536 14.8978 9.94158 14.7466 9.8106C14.594 9.67993 14.4718 9.52656 14.3789 9.35078C14.2862 9.17531 14.2399 8.9566 14.2399 8.69496C14.2399 8.41091 14.2937 8.1642 14.4008 7.95451C14.5082 7.74576 14.657 7.57402 14.8463 7.43931C15.0355 7.30491 15.2578 7.20349 15.514 7.13629C15.7697 7.06878 16.0457 7.03549 16.3427 7.03549C16.6545 7.03549 16.9527 7.0638 17.2386 7.12011C17.5238 7.17736 17.8005 7.27753 18.0672 7.42033L17.8335 8.51544C17.6183 8.41838 17.3939 8.33811 17.1605 8.27464C16.9268 8.21118 16.6912 8.17913 16.4541 8.17913C16.2389 8.17913 16.0664 8.20371 15.9364 8.25193C15.8067 8.30016 15.7419 8.40313 15.7419 8.55931C15.7419 8.70864 15.82 8.82064 15.9756 8.895C16.1312 8.96936 16.3167 9.05553 16.5319 9.15229C16.6875 9.21949 16.8675 9.29602 17.0716 9.38158C17.2753 9.46713 17.4664 9.57696 17.6442 9.71136C17.8224 9.84576 17.9746 10.0078 18.1005 10.1979C18.2265 10.388 18.2895 10.6251 18.2895 10.9085V10.9085ZM8.10959 12.6081V7.14811H9.57789V7.88762C9.75633 7.59611 9.98231 7.38113 10.2565 7.24269C10.5312 7.10456 10.8316 7.03549 11.1579 7.03549C11.5068 7.03549 11.805 7.11016 12.0532 7.25949C12.3018 7.40913 12.504 7.60949 12.6599 7.85931C12.8158 8.11007 12.9306 8.40189 13.0047 8.73416C13.0791 9.06704 13.1162 9.41238 13.1162 9.7714V12.6081H11.592V9.7602C11.592 9.26709 11.5158 8.89282 11.3635 8.63896C11.2117 8.38509 10.9613 8.25784 10.6127 8.25784C10.3904 8.25784 10.1972 8.31011 10.0342 8.41464C9.87086 8.51918 9.7375 8.64269 9.63346 8.78487V12.6081H8.10959V12.6081ZM4.99425 12.6081H6.55146V5.14051H4.99425V12.6081Z" fill="white"/>
<path fill-rule="evenodd" clip-rule="evenodd" d="M0 0.241455V9.00297L1.28399 7.70906V1.53537H7.41032L8.694 0.241455H0Z" fill="white"/>
<path fill-rule="evenodd" clip-rule="evenodd" d="M44.5365 20.4951V26.6685H38.4099L37.1262 27.9627H45.8199V19.2015L44.5365 20.4951Z" fill="white"/>
</svg>
