<?xml version="1.0" standalone="no"?>
<!DOCTYPE svg PUBLIC "-//W3C//DTD SVG 20010904//EN"
 "http://www.w3.org/TR/2001/REC-SVG-20010904/DTD/svg10.dtd">
<svg version="1.0" xmlns="http://www.w3.org/2000/svg"
 width="200.000000pt" height="200.000000pt" viewBox="0 0 200.000000 200.000000"
 preserveAspectRatio="xMidYMid meet">

<g transform="translate(0.000000,200.000000) scale(0.100000,-0.100000)"
fill="#000000" stroke="none">
<path d="M450 1020 c0 -67 4 -110 10 -110 6 0 10 13 10 29 0 44 15 46 46 6 14
-19 33 -35 41 -35 10 0 5 12 -16 39 -17 21 -31 42 -31 47 0 4 12 21 27 36 20
21 23 28 11 28 -9 0 -30 -17 -47 -37 l-30 -38 -1 73 c0 41 -4 72 -10 72 -6 0
-10 -43 -10 -110z"/>
<path d="M1670 1020 c0 -67 4 -110 10 -110 6 0 10 43 10 110 0 67 -4 110 -10
110 -6 0 -10 -43 -10 -110z"/>
<path d="M1850 1020 c0 -67 4 -110 10 -110 6 0 10 24 10 53 0 57 12 77 46 77
27 0 34 -17 34 -81 0 -27 5 -49 10 -49 7 0 10 25 8 66 -4 79 -18 96 -68 77
l-30 -11 0 44 c0 24 -4 44 -10 44 -6 0 -10 -43 -10 -110z"/>
<path d="M30 1015 c0 -63 4 -105 10 -105 6 0 10 17 10 38 0 35 2 38 48 52 44
14 47 18 50 52 4 44 -24 68 -80 68 l-38 0 0 -105z m88 73 c31 -31 3 -78 -47
-78 -18 0 -21 6 -21 45 0 43 1 45 28 45 15 0 33 -5 40 -12z"/>
<path d="M706 1113 c-11 -11 -6 -23 9 -23 8 0 15 4 15 9 0 13 -16 22 -24 14z"/>
<path d="M1150 1015 c0 -63 4 -105 10 -105 6 0 10 23 10 50 l0 50 55 0 55 0 0
-50 c0 -27 5 -50 10 -50 6 0 10 42 10 105 0 63 -4 105 -10 105 -5 0 -10 -20
-10 -45 l0 -45 -55 0 -55 0 0 45 c0 25 -4 45 -10 45 -6 0 -10 -42 -10 -105z"/>
<path d="M603 1083 c-4 -10 -11 -22 -17 -26 -8 -6 -7 -10 2 -14 7 -3 12 -23
12 -49 0 -25 5 -54 10 -65 11 -20 50 -27 50 -9 0 6 -7 10 -15 10 -12 0 -15 13
-15 55 0 48 2 55 20 55 11 0 20 5 20 10 0 6 -9 10 -20 10 -13 0 -20 7 -20 20
0 25 -18 26 -27 3z"/>
<path d="M1750 1084 c0 -9 -8 -23 -17 -30 -17 -12 -17 -13 -1 -14 14 0 18 -12
20 -62 3 -60 4 -63 31 -66 31 -4 37 13 7 21 -17 4 -20 14 -20 56 0 44 3 51 20
51 11 0 20 5 20 10 0 6 -9 10 -20 10 -13 0 -20 7 -20 20 0 11 -4 20 -10 20 -5
0 -10 -7 -10 -16z"/>
<path d="M190 985 c0 -88 16 -101 22 -17 4 63 0 92 -13 92 -5 0 -9 -34 -9 -75z"/>
<path d="M230 1050 c-8 -5 -12 -12 -9 -15 8 -8 39 5 39 16 0 11 -11 11 -30 -1z"/>
<path d="M300 1050 c-12 -8 -8 -10 15 -8 17 1 36 -1 43 -6 20 -12 14 -36 -11
-36 -30 0 -67 -27 -67 -49 0 -29 21 -40 73 -38 l47 2 0 45 c0 62 -18 94 -55
98 -17 1 -37 -2 -45 -8z m68 -86 c-4 -38 -33 -54 -55 -31 -17 18 -17 19 6 38
34 28 53 25 49 -7z"/>
<path d="M700 986 c0 -42 4 -76 9 -76 13 0 16 18 16 84 0 38 -4 61 -12 63 -10
4 -13 -15 -13 -71z"/>
<path d="M796 1039 c-35 -27 -37 -90 -4 -113 25 -18 88 -22 88 -6 0 6 -16 10
-35 10 -24 0 -37 6 -45 19 -25 47 0 91 51 91 16 0 29 5 29 10 0 18 -57 11 -84
-11z"/>
<path d="M930 1040 c-29 -29 -27 -94 2 -114 25 -18 83 -21 93 -6 3 5 -9 9 -29
8 -37 -1 -66 15 -66 38 0 10 15 14 55 14 48 0 55 2 55 20 0 28 -35 60 -65 60
-14 0 -34 -9 -45 -20z m81 -21 c9 -17 6 -19 -36 -19 -49 0 -57 11 -24 34 25
17 45 12 60 -15z"/>
<path d="M1361 1034 c-12 -15 -21 -35 -21 -46 0 -22 18 -60 34 -70 16 -11 86
-10 86 1 0 5 -14 9 -32 9 -22 -1 -37 6 -51 23 l-19 24 56 3 c51 3 56 5 56 26
0 55 -74 75 -109 30z m70 6 c36 -20 23 -40 -26 -40 -42 0 -45 2 -35 19 8 16
21 26 38 30 2 1 12 -4 23 -9z"/>
<path d="M1520 1050 c-11 -8 -8 -10 15 -8 17 1 36 -1 43 -6 20 -12 14 -36 -11
-36 -30 0 -67 -27 -67 -49 0 -29 23 -41 73 -39 l47 2 0 51 c0 62 -20 95 -58
95 -15 0 -34 -5 -42 -10z m73 -67 c8 -13 -12 -53 -29 -60 -8 -3 -22 1 -31 10
-14 13 -13 17 6 36 21 21 46 27 54 14z"/>
</g>
</svg>
