<svg xmlns="http://www.w3.org/2000/svg" version="1.1" xmlns:xlink="http://www.w3.org/1999/xlink" xmlns:svgjs="http://svgjs.dev/svgjs" width="1000" height="1125" viewBox="0 0 1000 1125"><g transform="matrix(1,0,0,1,1.7053025658242404e-13,0)"><svg viewBox="0 0 320 360" data-background-color="#fdf8f1" preserveAspectRatio="xMidYMid meet" height="1125" width="1000" xmlns="http://www.w3.org/2000/svg" xmlns:xlink="http://www.w3.org/1999/xlink"><g id="tight-bounds" transform="matrix(1,0,0,1,0,0)"><svg viewBox="0 0 320 360" height="360" width="320"><g><svg></svg></g><g><svg viewBox="0 0 320 360" height="360" width="320"><g><path xmlns="http://www.w3.org/2000/svg" d="M20.961 227.22l3.726 4.658-1.863-6.056c-0.466-2.795-3.726 0.466-1.863 1.398M25.153 224.425c1.397 2.329 2.795 4.658 2.795 6.987 0 3.261 2.795 4.658 5.123 5.589-3.261-3.726-5.124-13.974-7.918-12.576M204.017 26.929c7.918 0 15.371-0.932 23.756 0.931 20.495 5.124 37.729 15.371 49.374 29.811l32.606 52.169c1.397 13.042 4.192 27.482 3.726 43.319 3.261 0 2.795-4.658 6.521-5.59-3.726 9.316-5.59 20.961-6.521 34.469-2.329-7.453 0-18.632 0.466-24.687-3.261 5.124-5.124 1.397-5.124-0.932 0.466-3.726-1.397-3.261-2.795-4.658-5.124-4.658-8.384-9.782-12.11-17.7 2.329-6.055 2.795-14.905-4.658-19.563-2.329-1.397-5.124-3.726-6.521-7.453-1.863-5.124-5.124-11.179-4.193-19.097 0.466-2.329-6.987 5.124-11.179 1.863-18.166-12.576-36.332-27.016-58.224-39.127-11.645 0-20.029-4.192-24.221-9.316-3.726-4.658-0.932-10.713 4.658-11.179 3.261 0 6.987-0.932 9.782 0.932 0.466-1.863 2.329-4.192 4.657-4.192M157.904 16.215l0.932 0.466c4.658 0.932 6.987 7.453 12.11 5.124 0 3.261 0.466 6.521-0.466 8.85-1.397 3.726-5.59 3.726-8.85 3.726-31.208-1.863-49.374 11.179-68.471 22.358-5.124 3.261-10.713 5.59-14.906 9.782-20.029 18.632-41.921 35.866-47.045 70.335l-4.192 38.195c-0.466 4.192-5.124 8.384-4.192 13.508l3.26 22.824c-3.261-3.261-5.124 0.932-4.192 2.795 0.466 1.397 2.329 6.055 5.124 1.863 3.726 6.987 7.453 20.495 12.576 26.55 15.837 18.632 36.332 35.4 53.101 52.169 4.192-0.932 7.453-0.932 8.384-3.727 1.397 2.795-1.397 5.59-3.726 6.056 7.453 4.658 15.837 8.85 27.016 9.781 14.44 0.932 27.948 3.261 40.524 6.522 6.521-1.863 13.042-2.795 20.029-3.261 2.329 0 3.726-3.726 6.521-4.658l0.466-4.658c2.795 4.192 2.329-1.397 0.466-4.192 3.261 2.795 4.192 5.124 5.589 6.987 0-1.397 3.726-6.521 3.727-0.466l0.931-6.055c1.397-0.932 1.863 5.124 3.261 0.931 1.397-4.192 4.192-0.932 6.987-2.329-0.932 1.863-0.466 5.59 2.794 3.261l3.727-3.261c2.329 5.59 6.055 3.261 7.918 2.329 20.495-13.042 40.99-28.413 60.553-43.784l-0.466 6.055 2.329-7.453c2.329 2.329 4.192 0.466 5.124-0.931 2.795-4.658 6.521-9.316 12.577-13.508-7.453 20.029-16.303 35.866-27.482 48.908l-4.658 5.59c0 3.261-0.932 7.453-4.658 7.918-1.863 0.466-5.59-0.932-8.384 1.863-1.397 1.863 3.261 5.59-0.466 2.795-3.261-2.329-6.521 0-10.248 0.932-2.795 0.932 1.863 3.726 2.795 5.589 0.932 1.863 1.863 3.726 1.398 6.056l-5.124-5.59c-6.055 3.261-9.782 9.316-14.906 13.974-2.329 1.863-1.397 5.124-1.397 7.918-3.261 0-6.987-0.932-8.85 0.932-1.397 1.863-0.932 4.658-0.932 7.453-4.658-0.466-5.124-7.453-9.315-6.056-4.192 0.932-8.85 1.397-12.577 3.727 2.795 5.59-4.658 2.329-3.726 3.26-6.987-4.192-13.042-7.453-20.495-4.658-15.837-5.124-35.4-2.795-49.84-0.931 0-2.329 0.466-4.658-0.466-5.124-0.932 2.329-3.726 1.397-3.26 1.397-8.85-6.055-17.7-9.782-27.016-14.905-8.384 0.932-16.303-3.261-18.632-5.59-6.521-6.055-13.974-2.795-20.029-4.192-13.042-3.261-17.7-16.769-19.098-26.084-0.932-4.658-4.658-6.521-6.055-6.056-6.055-19.563-15.371-37.263-22.824-55.429-1.863-4.658-1.397-9.316-1.397-14.44 2.329 0.932 4.658 0.466 4.192-2.794-2.329-15.371-7.918-27.016-13.974-38.195 3.261-15.837 3.726-34.469 11.179-48.443 6.521-12.576 18.632-19.098 27.016-29.811 2.795-3.726 2.795-8.85 5.59-12.11 9.316-9.316 18.632-19.098 28.879-27.482 4.658-3.726 10.247 0 17.234-1.397 2.329-8.384 11.645-15.837 20.495-13.508 3.726 0.932 11.179-8.85 13.508-9.782 3.726-1.397 1.863 3.726 1.863 6.987 8.85-6.987 20.961-10.713 32.14-14.906" fill="#fa4238" fill-rule="nonzero" stroke="none" stroke-width="1" stroke-linecap="butt" stroke-linejoin="miter" stroke-miterlimit="10" stroke-dasharray="" stroke-dashoffset="0" font-family="none" font-weight="none" font-size="none" text-anchor="none" style="mix-blend-mode: normal" data-fill-palette-color="tertiary"></path></g><g transform="matrix(1,0,0,1,119.4140127388535,90)"><svg viewBox="0 0 81.17197452229298 180" height="180" width="81.17197452229298"><g><svg viewBox="0 0 81.17197452229298 180" height="180" width="81.17197452229298"><g><svg viewBox="0 0 81.17197452229298 180" height="180" width="81.17197452229298"><g><svg viewBox="0 0 81.17197452229298 180" height="180" width="81.17197452229298"><g id="textblocktransform"><svg viewBox="0 0 81.17197452229298 180" height="180" width="81.17197452229298" id="textblock"><g><svg viewBox="0 0 81.17197452229298 180" height="180" width="81.17197452229298"><g transform="matrix(1,0,0,1,0,0)"><svg width="81.17197452229298" viewBox="-0.24000000953674316 -37.11000061035156 17.280000686645508 38.33000183105469" height="180" data-palette-color="#fa4238"><path d="M13.38-36.33L13.38-36.33Q13.72-35.69 13.72-34.86L13.72-34.86Q13.72-34.13 13.43-33.3 13.13-32.47 12.5-32.03L12.5-32.03Q12.06-31.05 11.65-30.44 11.23-29.83 10.84-29.25L10.84-29.25Q10.69-28.91 10.55-28.59 10.4-28.27 10.16-27.93L10.16-27.93Q10.01-27.69 9.52-26.95 9.03-26.22 8.52-25.42 8.01-24.61 7.62-23.88 7.23-23.14 7.23-22.95L7.23-22.95Q7.23-22.75 7.69-22.46 8.15-22.17 8.3-22.02L8.3-22.02Q8.54-21.78 8.76-21.53 8.98-21.29 9.23-21.04L9.23-21.04Q9.77-20.61 10.28-20.17 10.79-19.73 11.33-19.19L11.33-19.19Q12.35-18.26 13.48-17.43 14.6-16.6 15.48-15.48L15.48-15.48Q16.31-15.23 16.55-14.31 16.8-13.38 16.7-12.55L16.7-12.55Q16.8-12.4 16.87-12.26 16.94-12.11 17.04-11.91L17.04-11.91Q17.04-11.13 16.82-10.77 16.6-10.4 16.36-9.86L16.36-9.86Q16.11-9.38 16.04-8.89 15.97-8.4 15.72-8.01L15.72-8.01Q15.63-7.86 15.45-7.76 15.28-7.67 15.19-7.47L15.19-7.47Q14.99-7.13 14.87-6.67 14.75-6.2 14.55-5.81L14.55-5.81Q14.4-5.42 14.18-5.03 13.96-4.64 13.82-4.25L13.82-4.25Q13.72-4 13.65-3.66 13.57-3.32 13.18-3.17L13.18-3.17Q12.94-2.29 12.52-1.46 12.11-0.63 11.87 0.24L11.87 0.24Q11.43 0.39 10.77 0.81 10.11 1.22 9.72 1.22L9.72 1.22Q9.57 1.22 9.47 1.07 9.38 0.93 9.18 0.83L9.18 0.83Q9.08 0.78 8.91 0.83 8.74 0.88 8.64 0.88L8.64 0.88Q8.4 0.88 8.28 0.68 8.15 0.49 7.96 0.39L7.96 0.39Q7.81 0.44 7.67 0.49 7.52 0.54 7.37 0.54L7.37 0.54Q7.03 0.54 6.98 0.37 6.93 0.2 6.69 0.05L6.69 0.05Q6.1-0.24 6.01-0.49 5.91-0.73 5.71-0.83L5.71-0.83Q6.05-2.1 6.64-3.25 7.23-4.39 7.76-5.57L7.76-5.57Q7.91-5.96 8.13-6.3 8.35-6.64 8.54-7.03L8.54-7.03Q8.69-7.37 8.98-7.91 9.28-8.45 9.52-9.03 9.77-9.62 9.96-10.13 10.16-10.64 10.16-10.99L10.16-10.99Q10.16-11.67 9.77-12.01L9.77-12.01Q8.35-13.18 7.1-14.4 5.86-15.63 4.49-16.89L4.49-16.89Q3.61-17.68 2.59-18.51L2.59-18.51Q2.39-18.65 2.29-18.95 2.2-19.24 2-19.48L2-19.48Q1.9-19.68 1.71-19.78 1.51-19.87 1.42-20.07L1.42-20.07Q1.27-20.26 1.22-20.53 1.17-20.8 0.93-20.95L0.93-20.95Q0.68-21.19 0.34-21.24 0-21.29-0.24-21.53L-0.24-21.53Q-0.1-21.68-0.12-21.85-0.15-22.02-0.15-22.17L-0.15-22.17Q-0.15-22.51 0.15-22.66 0.44-22.8 0.44-23.19L0.44-23.19Q0.63-23.58 0.73-23.68L0.73-23.68Q1.27-25 1.95-26.22 2.64-27.44 3.37-28.66L3.37-28.66Q3.61-29.05 3.83-29.42 4.05-29.79 4.3-30.18L4.3-30.18Q4.44-30.52 4.57-30.79 4.69-31.05 4.93-31.3L4.93-31.3Q5.62-32.08 6.08-32.76 6.54-33.45 6.79-34.42L6.79-34.42Q6.84-34.67 6.98-35.11 7.13-35.55 7.35-35.99 7.57-36.43 7.81-36.77 8.06-37.11 8.35-37.11L8.35-37.11Q8.59-37.11 9.06-36.91 9.52-36.72 9.86-36.62L9.86-36.62Q10.16-36.52 10.47-36.45 10.79-36.38 11.08-36.38L11.08-36.38Q11.28-36.38 11.47-36.5 11.67-36.62 11.91-36.62L11.91-36.62Q12.3-36.62 12.65-36.5 12.99-36.38 13.38-36.33Z" opacity="1" transform="matrix(1,0,0,1,0,0)" fill="#fa4238" class="undefined-text-0" data-fill-palette-color="primary" id="text-0"></path></svg></g></svg></g></svg></g></svg></g><g></g></svg></g></svg></g></svg></g></svg></g><defs></defs></svg><rect width="320" height="360" fill="none" stroke="none" visibility="hidden"></rect></g></svg></g></svg>